<svg xmlns="http://www.w3.org/2000/svg" width="758" height="375" viewBox="0 0 758 375" fill="none"><g opacity="0.3" clip-path="url(#clip0_215_1642)"><path d="M634.669 229.542C634.669 304.637 549.374 322.419 497.165 333.306C490.493 334.695 484.169 336.009 478.935 337.274C455.77 342.903 440.12 326.163 435.383 308.208C429.182 284.772 438.706 254.937 474.248 244.794C507.061 235.42 525.142 204.122 539.651 178.974C552.995 155.885 564.454 135.946 582.931 140.733C620.135 150.405 633.106 212.182 633.652 214.811C634.324 219.692 634.664 224.614 634.669 229.542ZM436.052 294.717C436.06 299.062 436.627 303.388 437.739 307.588C442.179 324.427 456.787 340.151 478.365 334.868C483.648 333.579 489.972 332.388 496.669 330.875C551.234 319.467 642.63 300.421 631.246 215.207C630.874 213.372 617.828 152.24 582.336 143.039C565.694 138.724 555.054 157.001 541.76 180.239C527.027 205.759 508.673 237.528 474.918 247.2C447.238 255.036 436.052 275.373 436.052 294.717Z" fill="#32509D"></path><g opacity="0.95"><path d="M658.478 228.004C658.478 266.097 640.15 296.304 603.79 318.004C568.595 338.985 523.405 348.409 490.418 355.204C482.234 356.915 474.495 358.527 468.096 360.164C439.946 366.984 420.972 346.599 415.144 324.774C407.703 296.254 419.211 259.897 462.516 247.522C502.82 235.99 524.993 197.624 542.801 166.773C559.071 138.624 573.134 114.32 595.431 120.099C640.968 131.904 656.668 207.37 657.313 210.57C658.088 216.349 658.478 222.173 658.478 228.004ZM415.416 308.357C415.421 313.706 416.112 319.032 417.475 324.204C422.956 344.962 440.988 364.356 467.6 357.907C474.049 356.32 481.812 354.708 489.922 352.947C556.888 338.985 668.945 315.574 654.957 210.967C654.535 208.933 638.513 133.664 594.811 122.331C574.225 116.999 561.229 139.468 544.785 167.938C526.754 199.137 504.333 237.974 463.111 249.779C429.107 259.525 415.342 284.573 415.342 308.307L415.416 308.357Z" fill="#32509D"></path></g><g opacity="0.9"><path d="M682.339 226.913C682.339 271.9 660.661 307.588 617.729 333.182C576.135 357.982 522.687 369.167 483.673 377.301C473.975 379.31 464.823 381.22 457.209 383.08C424.073 391.115 401.676 367.108 394.881 341.391C385.977 307.737 399.667 264.882 450.76 250.275C498.529 236.635 524.795 191.176 545.901 154.645C565.098 121.413 581.691 92.645 607.907 99.5146C661.604 113.428 680.726 205.461 680.9 206.378C681.838 213.184 682.318 220.044 682.339 226.913ZM394.633 321.997C394.652 328.351 395.486 334.677 397.113 340.82C403.636 365.496 425.065 388.56 456.638 380.872C464.277 379.012 473.454 377.103 483.152 375.094C562.519 358.552 695.211 330.851 678.643 206.8C678.172 204.568 659.223 115.164 607.287 101.697C582.733 95.3482 567.331 122.008 547.762 155.761C526.456 192.639 499.943 238.544 451.281 252.482C410.952 264.014 394.633 293.749 394.633 321.997Z" fill="#32509D"></path></g><g opacity="0.86"><path d="M706.173 225.822C706.173 277.704 681.197 318.847 631.767 348.384C583.774 377.028 522.066 389.9 477.001 399.299C465.815 401.63 455.249 403.837 446.469 405.97C408.249 415.221 382.454 387.668 374.617 357.907C364.374 319.17 380.148 269.792 439.103 252.953C494.362 237.155 524.72 184.629 549.125 142.394C571.249 104.103 590.372 71.0192 620.482 78.8312C682.363 94.8769 704.437 201.022 704.636 202.088C705.669 209.957 706.182 217.885 706.173 225.822ZM373.898 335.587C373.905 342.945 374.855 350.271 376.725 357.387C384.29 386.006 409.142 412.716 445.849 403.813C454.679 401.655 465.269 399.448 476.455 397.116C568.223 377.996 721.625 346.003 702.403 202.51C701.907 200.03 680.081 96.5633 619.837 80.9888C591.314 73.5488 573.481 104.45 550.911 143.535C526.332 186.092 495.726 239.065 439.599 255.136C392.797 268.503 373.898 302.925 373.898 335.587Z" fill="#32509D"></path></g><g opacity="0.81"><path d="M730.033 224.73C730.033 283.482 701.733 330.106 645.705 363.611C591.14 396.075 521.322 410.732 470.229 421.321C457.531 423.975 445.427 426.455 435.506 428.885C392.4 439.351 363.232 408.103 354.378 374.623C342.795 330.751 360.653 274.852 427.272 255.805C490.021 237.874 524.472 178.23 552.151 130.341C577.201 86.9655 598.829 49.5172 632.858 58.4205C702.949 76.599 727.925 196.855 728.173 198.07C729.375 206.907 729.996 215.813 730.033 224.73ZM353.187 349.302C353.176 357.672 354.252 366.008 356.387 374.102C364.993 406.64 393.268 437.02 435.01 426.876C444.931 424.396 457.034 421.916 469.733 419.436C520.677 408.797 590.421 394.264 644.564 361.974C709.05 323.509 735.688 270.04 726.114 198.492C725.593 196.012 700.766 78.2358 632.337 60.5037C599.846 52.0716 579.607 87.1391 553.962 131.531C526.084 179.768 491.41 239.784 427.842 258.012C374.666 272.991 353.187 312.101 353.187 349.302Z" fill="#32509D"></path></g><g opacity="0.76"><path d="M753.868 223.664C753.868 289.286 722.245 341.391 659.619 378.765C598.779 415.072 520.578 431.39 463.458 443.245C449.271 446.196 435.853 448.999 424.692 451.702C376.601 463.407 344.06 428.514 334.164 391.14C321.217 342.159 341.183 279.738 415.565 258.484C485.805 238.396 524.348 171.683 555.326 118.09C584.468 67.6465 607.41 27.8175 645.383 37.6631C723.659 57.9496 751.586 192.317 751.859 193.681C753.204 203.619 753.875 213.636 753.868 223.664ZM332.453 362.868C332.452 372.226 333.66 381.546 336.049 390.594C345.697 427.05 377.37 461.101 424.172 449.743C435.357 447.015 448.775 444.237 462.987 441.261C520.032 429.382 597.986 413.113 658.553 376.979C730.702 333.951 760.564 274.083 749.85 194.003C749.279 191.325 721.501 59.4377 644.837 39.5728C608.403 30.1239 585.708 69.3329 557.012 119.057C525.861 172.973 487.07 240.082 416.061 260.418C356.511 277.481 332.453 321.278 332.453 362.868Z" fill="#32509D"></path></g><g opacity="0.71"><path d="M777.728 222.846C777.728 256.971 770.089 287.822 754.86 314.879C737.672 345.408 710.216 371.92 673.509 393.967C606.27 434.094 519.735 452.123 456.663 465.292C440.963 468.566 426.132 471.666 413.805 474.667C360.703 487.563 324.79 449.023 313.877 407.706C306.379 379.339 309.602 349.204 322.929 323.063C338.456 293.303 366.408 271.95 403.76 261.286C481.49 238.966 524.125 165.26 558.402 105.963C590.645 50.2616 616.017 6.26601 657.834 17.1037C744.295 39.4238 775.124 188.002 775.446 189.49C776.954 200.545 777.716 211.689 777.728 222.846ZM311.744 376.607C311.737 386.971 313.079 397.292 315.737 407.309C326.402 447.684 361.497 485.405 413.358 472.831C425.76 469.831 440.641 466.731 456.266 463.457C519.264 450.313 605.576 432.308 672.542 392.355C752.38 344.714 785.417 278.473 773.561 189.886C772.966 187.059 742.261 41.0854 657.338 18.9637C616.935 8.49803 591.835 51.948 560.064 106.955C525.613 166.475 482.755 240.727 404.306 263.196C338.381 281.969 311.744 330.479 311.744 376.582L311.744 376.607Z" fill="#32509D"></path></g><g opacity="0.67"><path d="M801.612 221.779C801.612 259.153 793.229 292.931 776.562 322.542C757.712 355.998 727.751 385.187 687.522 409.169C613.859 453.115 519.115 472.856 449.941 487.29C432.753 490.886 416.508 494.258 402.991 497.557C344.854 511.668 305.567 469.508 293.638 424.372C285.404 393.304 288.937 360.291 303.559 331.669C320.523 299.106 351.129 275.719 392.028 264.039C477.224 239.66 523.976 158.787 561.527 93.8103C596.746 32.8267 624.574 -15.3104 670.309 -3.5056C764.955 21.0218 798.735 183.636 799.058 185.273C800.716 197.372 801.569 209.567 801.612 221.779ZM291.009 390.147C291.007 401.516 292.482 412.837 295.399 423.826C307.105 468.144 345.623 509.511 402.519 495.747C416.061 492.473 432.282 489.075 449.52 485.479C518.569 471.07 613.214 451.354 686.53 407.557C774.057 355.353 810.268 282.738 797.272 185.596C796.677 182.644 762.995 22.3858 669.838 -1.76955C625.467 -13.2768 597.911 34.3643 563.188 94.7031C525.489 159.977 478.538 241.198 392.623 265.824C320.226 286.458 291.009 339.654 291.009 390.147Z" fill="#32509D"></path></g><g opacity="0.62"><path d="M825.448 220.713C825.448 261.336 816.32 298.04 798.165 330.231C777.728 366.563 745.163 398.233 701.436 424.347C621.375 472.137 518.371 493.614 443.171 509.288C424.47 513.181 406.811 516.877 392.103 520.448C329.031 535.774 286.346 489.993 273.399 440.963C264.474 407.209 268.315 371.348 284.188 340.25C302.616 304.885 335.851 279.489 380.297 266.792C472.983 240.28 523.828 152.314 564.652 81.6338C602.922 15.3678 633.156 -36.9606 682.785 -24.1142C736.581 -10.1765 771.776 44.9295 791.915 88.677C805.343 118.333 815.69 149.289 822.794 181.058C824.554 194.203 825.441 207.45 825.448 220.713ZM270.299 403.862C270.296 416.243 271.896 428.572 275.061 440.542C287.81 488.753 329.626 533.815 391.632 518.761C406.364 515.19 424.023 511.495 442.749 507.601C517.825 491.928 620.656 470.401 700.469 422.859C795.685 366.067 835.096 287.078 820.934 181.38C820.314 178.305 783.73 3.86051 682.289 -22.4277C633.95 -34.9517 604.013 16.8806 566.091 82.5018C525.093 153.455 474.074 241.768 380.719 268.503C302.071 290.947 270.299 348.831 270.299 403.862Z" fill="#32509D"></path></g><g opacity="0.57"><path d="M849.282 219.671C849.282 263.518 839.361 303.148 819.891 337.918C797.817 377.152 762.648 411.352 715.375 439.599C628.865 491.208 517.626 514.396 436.399 531.359C416.185 535.576 397.112 539.568 381.239 543.412C313.157 559.954 267.149 510.552 253.135 457.653C243.487 421.208 247.629 382.485 264.768 348.905C284.609 310.737 320.548 283.308 368.54 269.544C468.716 240.925 523.629 145.866 567.752 69.4813C609.097 -2.04231 641.762 -58.5618 695.26 -44.5994C753.347 -29.5457 791.319 29.9499 812.971 77.1942C827.431 109.199 838.583 142.596 846.256 176.866C848.224 191.05 849.235 205.351 849.282 219.671ZM249.589 417.428C249.582 430.82 251.307 444.158 254.723 457.108C268.513 509.188 313.851 557.97 380.842 541.676C396.74 537.832 415.838 533.84 436.052 529.623C517.18 512.71 628.269 489.546 714.507 438.086C817.411 376.681 860.021 291.319 844.718 177.089C844.074 173.964 804.514 -14.74 694.863 -43.161C642.555 -56.7267 610.188 -0.70308 569.19 70.2501C524.918 146.883 469.808 242.239 368.987 271.131C283.94 295.436 249.589 357.907 249.589 417.428Z" fill="#32509D"></path></g><g opacity="0.52"><path d="M873.142 218.605C873.142 265.725 862.576 308.258 841.569 345.582C817.858 387.742 780.109 424.446 729.314 454.702C636.405 510.106 516.907 535.03 429.653 553.234C407.951 557.772 387.489 562.038 370.376 566.179C297.308 583.936 247.877 530.913 232.872 474.121C222.5 435.009 226.916 393.447 245.273 357.387C266.653 316.392 305.171 286.954 356.685 272.223C464.351 241.446 523.356 139.319 570.778 57.2551C615.174 -19.6254 650.145 -80.2619 707.661 -65.357C769.989 -49.2121 810.789 14.6732 834.029 65.4143C849.603 99.8177 861.612 135.725 869.868 172.576C871.981 187.829 873.075 203.206 873.142 218.605ZM228.854 431.142C228.854 445.532 230.713 459.861 234.385 473.774C249.266 529.847 297.978 582.225 370.004 564.716C387.092 560.574 407.604 556.284 429.331 551.77C516.486 533.592 635.834 508.692 728.52 453.388C839.088 387.42 884.774 295.659 868.429 172.898C860.175 136.172 848.2 100.383 832.689 66.0839C809.599 15.6652 769.096 -47.7984 707.364 -63.6953C651.087 -78.2778 616.29 -18.0629 572.241 58.1727C524.67 140.484 465.592 242.934 357.206 273.934C265.884 299.925 228.854 367.183 228.854 431.142Z" fill="#32509D"></path></g><g opacity="0.48"><path d="M896.977 217.538C896.977 267.883 885.692 313.366 863.245 353.27C837.922 398.307 797.544 437.59 743.252 469.831C644.043 529.078 516.188 555.738 422.882 575.182C399.692 580.142 377.766 584.606 359.512 589.045C324.789 597.477 291.951 591.376 264.767 571.362C240.114 553.209 221.587 524.565 212.683 490.663C201.616 448.857 206.367 404.438 226.026 365.918C248.869 322.121 290.041 290.674 345.077 274.926C460.234 242.016 523.331 132.796 574.027 45.0286C621.473 -37.06 658.925 -101.912 720.36 -86.0154C786.978 -68.6553 830.581 -0.479764 855.408 53.7582C872.044 90.5396 884.884 128.922 893.727 168.31C895.907 184.629 896.992 201.075 896.977 217.538ZM208.144 444.708C208.142 460.101 210.126 475.43 214.047 490.316C229.92 550.307 282.079 606.355 359.165 587.631C377.444 583.192 399.369 578.604 422.584 573.768C515.766 554.325 643.324 527.714 742.533 468.591C860.79 398.034 909.75 299.949 892.165 168.509C883.366 129.22 870.568 90.9358 853.969 54.2542C829.167 0.338657 785.937 -67.5393 719.888 -84.6266C659.644 -100.226 622.44 -35.8199 575.316 45.7478C524.472 133.739 461.226 243.231 345.474 276.389C247.654 304.389 208.144 376.384 208.144 444.708Z" fill="#32509D"></path></g><g opacity="0.43"><path d="M920.837 216.546C920.837 270.115 908.833 318.525 884.923 361.007C857.963 408.921 814.981 450.709 757.217 485.182C651.485 548.248 515.469 576.62 416.136 597.328C391.334 602.486 368.094 607.248 348.674 612.208C311.645 621.186 276.748 614.688 247.853 593.41C221.612 574.09 201.919 543.586 192.371 507.527C180.615 463.042 185.675 415.785 206.582 374.796C230.888 328.172 274.714 294.692 333.297 277.952C455.944 242.884 523.133 126.671 577.128 33.1491C601.459 -9.01119 624.45 -48.6914 648.93 -75.0044C676.213 -104.145 702.751 -114.114 732.712 -106.352C803.622 -87.9749 850.002 -15.3104 876.441 42.4491C894.159 81.6096 907.83 122.478 917.241 164.416C919.594 181.694 920.796 199.109 920.837 216.546ZM187.41 458.422C187.413 474.82 189.531 491.149 193.71 507.006C210.625 570.916 266.207 630.635 348.327 610.67C367.772 605.909 391.136 600.949 415.864 595.989C515.072 575.281 650.964 546.934 756.497 483.991C882.468 408.847 934.577 304.314 915.852 164.491C906.489 122.658 892.859 81.8966 875.176 42.846C848.861 -14.5912 802.729 -86.9084 732.365 -105.137C668.177 -121.777 628.518 -53.0562 578.343 33.7444C524.224 127.415 456.812 243.975 333.669 279.266C229.5 308.877 187.41 385.559 187.41 458.422Z" fill="#32509D"></path></g><g opacity="0.38"><path d="M944.671 215.431C944.671 272.248 931.948 323.584 906.6 368.621C878.003 419.462 832.441 463.755 771.155 500.335C659.024 567.295 514.724 597.328 409.389 619.376C383.173 624.757 358.421 629.916 337.81 634.925C298.573 644.449 261.618 637.579 230.962 615.085C203.134 594.6 182.226 562.261 172.131 524.019C159.65 476.852 165.01 426.739 187.186 383.278C212.956 333.851 259.41 298.362 321.54 280.606C451.677 243.405 522.959 120.025 580.252 20.8735C606.071 -23.7668 630.452 -65.9271 656.395 -93.8273C685.24 -124.728 713.44 -135.293 745.187 -127.059C820.362 -107.567 869.57 -30.5125 897.621 30.6943C916.404 72.2273 930.889 115.572 940.852 160.052C943.344 178.407 944.62 196.907 944.671 215.431ZM166.675 471.988C166.672 489.384 168.923 506.706 173.371 523.523C191.303 591.376 250.258 654.741 337.463 633.561C358.098 628.601 382.876 623.393 409.092 617.912C514.352 595.964 658.503 565.832 770.46 499.095C904.12 419.362 959.404 308.481 939.562 160.101C929.589 115.759 915.12 72.5486 896.381 31.1407C868.479 -29.7933 819.494 -106.525 744.84 -125.869C676.683 -143.527 634.618 -70.7384 581.343 21.4438C552.548 71.2922 519.908 127.787 478.712 175.552C431.364 230.385 380.073 265.155 321.887 281.771C211.319 313.267 166.675 394.736 166.675 471.988Z" fill="#32509D"></path></g><g opacity="0.33"><path d="M968.532 214.364C968.532 274.43 955.064 328.693 928.278 376.309C898.044 430.026 849.878 476.874 785.094 515.513C666.54 586.243 513.907 618.061 402.619 641.299C375.014 647.077 348.748 652.533 326.947 657.816C285.478 667.91 246.439 660.618 214.048 636.761C184.632 615.135 162.558 580.96 151.794 540.561C138.613 490.691 144.282 437.712 167.717 391.76C194.999 339.679 244.058 302.008 309.735 283.259C447.412 243.827 522.811 113.452 583.353 8.62211C610.635 -38.4982 636.43 -83.1385 663.861 -112.626C694.318 -145.263 724.13 -156.423 757.663 -147.743C792.758 -138.641 825.472 -117.016 854.913 -83.4361C878.425 -56.6023 899.904 -22.1301 918.754 19.0134C938.609 62.9114 953.926 108.724 964.464 155.737C967.127 175.167 968.486 194.753 968.532 214.364ZM145.99 485.728C145.981 504.143 148.357 522.483 153.059 540.288C172.033 612.06 234.435 679.169 326.674 656.675C348.476 651.393 374.667 645.937 402.371 640.158C513.683 616.945 666.093 585.151 784.474 514.521C925.847 430.2 984.306 312.945 963.298 156.009C952.763 109.109 937.472 63.406 917.662 19.6085C888.123 -44.8719 836.361 -125.968 757.365 -146.553C685.24 -165.252 640.795 -88.2473 584.419 9.24211C553.987 61.9424 519.462 121.661 475.91 172.154C425.859 230.137 371.74 266.866 310.131 284.45C193.214 317.855 145.99 403.912 145.99 485.728Z" fill="#32509D"></path></g><g opacity="0.29"><path d="M992.391 213.322C992.391 276.612 978.18 333.801 949.955 383.972C918.183 440.616 867.314 489.968 799.132 530.715C674.079 605.264 513.287 638.794 395.873 663.296C366.656 669.372 339.076 675.126 316.109 680.656C272.407 691.271 231.26 683.608 197.058 658.485C166.154 635.669 142.89 599.734 131.63 557.152C117.728 504.616 123.698 448.798 148.396 400.39C177.092 345.358 228.854 305.827 298.127 285.987C443.245 244.521 522.711 106.954 586.577 -3.55513C615.348 -53.3539 642.506 -100.276 671.426 -131.375C703.52 -165.773 734.919 -177.528 770.238 -168.377C807.218 -158.779 841.693 -135.988 872.721 -100.598C897.523 -72.326 920.142 -35.9937 940.009 7.38168C960.931 53.6562 977.079 101.944 988.2 151.495C990.966 171.989 992.366 192.643 992.391 213.322ZM125.256 499.268C125.247 518.671 127.748 537.993 132.696 556.755C152.712 632.445 218.537 703.076 315.811 679.516C338.803 673.936 366.408 668.182 395.625 662.156C512.964 637.678 673.633 604.173 798.438 529.723C947.474 440.814 1009.13 317.16 986.935 151.719C975.843 102.256 959.721 54.0586 938.819 7.87765C907.692 -60.0996 853.102 -145.635 769.791 -167.211C734.919 -176.263 703.892 -164.607 672.095 -130.557C643.275 -99.6558 616.141 -52.6843 587.396 -2.95998C555.301 52.6172 518.917 115.56 473.008 168.781C420.253 229.889 363.109 268.602 298.301 287.127C175.083 322.344 125.256 413.088 125.256 499.268Z" fill="#32509D"></path></g><g opacity="0.24"><path d="M1016.23 212.256C1016.23 278.795 1001.35 338.911 971.582 391.66C938.099 451.181 884.774 503.088 812.848 545.917C681.396 624.286 512.418 659.552 388.978 685.294C358.248 691.693 329.254 697.694 305.097 703.622C259.188 714.757 215.957 706.697 180.068 680.31C147.503 656.353 123.023 618.508 111.217 573.669C96.6284 518.445 102.907 459.783 128.852 408.897C159.036 351.063 213.427 309.498 286.172 288.69C438.756 245.092 522.315 100.432 589.479 -15.7813C619.713 -68.1097 648.285 -117.462 678.767 -150.149C712.498 -186.282 745.485 -198.633 782.589 -189.01C821.454 -178.942 857.715 -154.985 890.305 -117.809C916.348 -88.049 940.158 -49.8816 961.041 -4.27415C983.057 44.3665 1000.04 95.1323 1011.71 147.23C1014.66 168.781 1016.17 190.505 1016.23 212.256ZM104.67 513.008C104.667 533.415 107.302 553.738 112.507 573.47C133.44 653.029 202.688 727.43 304.997 702.63C329.155 696.752 358.198 690.701 388.903 684.302C512.27 658.535 681.247 623.269 812.451 545C969.177 451.528 1034.03 321.476 1010.72 147.503C999.065 95.4839 982.119 44.7932 960.149 -3.77811C927.41 -75.2522 869.992 -165.202 782.391 -187.919C745.683 -197.418 712.945 -185.166 679.586 -149.33C649.277 -116.842 620.73 -67.4897 590.521 -15.1613C556.79 43.243 518.594 109.435 470.255 165.384C414.822 229.616 354.726 270.313 286.594 289.806C156.928 326.833 104.67 422.388 104.67 513.008Z" fill="#32509D"></path></g><g opacity="0.19"><path d="M1040.09 211.19C1040.09 280.977 1024.44 344.044 993.309 399.349C958.189 461.771 902.21 516.182 826.935 561.095C689.159 643.308 511.847 680.31 382.454 707.292C350.211 714.013 319.804 720.362 294.456 726.512C246.315 738.193 201.001 729.761 163.376 702.084C129.248 676.937 103.603 637.256 91.2015 590.335C75.8241 532.401 82.5455 469.508 109.63 417.577C141.277 356.915 198.322 313.416 274.589 291.517C434.539 245.761 522.314 94.0337 592.752 -27.8839C624.474 -82.7666 654.411 -134.525 686.306 -168.798C721.65 -206.668 756.224 -219.639 795.114 -209.545C835.889 -198.98 873.886 -173.858 908.063 -134.872C935.346 -103.698 960.346 -63.6457 982.247 -15.831C1005.33 35.1953 1023.14 88.4446 1035.4 143.088C1038.47 165.66 1040.04 188.41 1040.09 211.19ZM83.8104 526.549C83.8133 547.961 86.581 569.284 92.0447 589.987C114.119 673.539 186.789 751.56 294.158 725.471C319.506 719.32 349.938 713.071 382.181 706.251C511.575 679.367 688.811 642.39 826.414 560.277C990.853 462.068 1058.89 325.667 1034.46 143.237C1022.2 88.6644 1004.42 35.4826 981.379 -15.4838C947.028 -90.4795 886.783 -184.844 794.891 -208.677C756.373 -218.597 722.096 -205.8 687.001 -168.178C655.204 -134.103 625.268 -82.2954 593.571 -27.4375C558.178 33.8189 518.073 103.235 467.427 161.912C409.29 229.294 346.292 271.975 274.837 292.385C138.772 331.322 83.8104 431.465 83.8104 526.549Z" fill="#32509D"></path></g><g opacity="0.14"><path d="M1063.95 210.619C1064.02 236.226 1061.88 261.791 1057.55 287.028C1050.26 329.155 1035.84 369.73 1014.91 407.011C978.154 472.36 919.596 529.301 840.824 576.297C696.624 662.329 510.955 701.017 375.559 729.29C341.828 736.308 309.982 742.954 283.444 749.403C233.095 761.629 185.673 752.8 146.337 723.834C110.597 697.545 83.7857 656.03 70.8142 606.926C54.7919 546.314 61.8357 480.445 90.1351 426.157C123.246 362.694 182.92 317.037 262.759 294.27C430.372 246.306 522.14 87.5855 595.877 -40.0361C629.063 -97.4981 660.363 -151.761 693.772 -187.523C730.752 -227.203 766.914 -240.694 807.614 -230.154C850.249 -219.093 890.007 -192.805 925.772 -152.009C954.369 -119.397 980.486 -77.4844 1003.4 -27.4377C1027.57 25.9528 1046.21 81.6808 1059.01 138.872C1062.24 162.652 1063.89 186.621 1063.95 210.619ZM63.1007 540.288C63.1034 562.712 65.996 585.042 71.707 606.727C94.7483 694.173 170.916 775.864 283.245 748.559C309.784 742.111 341.63 735.465 375.361 728.446C510.806 700.199 696.302 661.486 840.378 575.553C1012.46 472.881 1083.69 330.032 1058.09 139.071C1045.28 81.9372 1026.66 26.2614 1002.54 -27.0904C966.597 -105.583 903.524 -204.387 807.317 -229.311C766.963 -239.777 731.074 -226.285 694.342 -186.928C661.058 -151.24 629.708 -97.0269 596.547 -39.6145C559.493 24.4939 517.527 97.1583 464.525 158.564C403.759 228.946 337.81 273.735 263.056 295.113C120.642 335.81 63.1007 440.641 63.1007 540.288Z" fill="#32509D"></path></g><g opacity="0.1"><path d="M1087.81 209.602C1087.89 236.34 1085.65 263.034 1081.11 289.384C1070.97 348.591 1047.3 404.657 1011.94 453.214C1070.17 372.564 1099.88 269.123 1081.88 134.706C1068.5 75.0159 1049.06 16.8475 1023.87 -38.8954C986.29 -120.885 920.415 -224.103 819.892 -250.143C777.728 -261.08 740.227 -246.994 701.833 -205.85C667.11 -168.65 634.322 -111.932 599.673 -51.9651C560.981 14.9954 517.131 90.884 461.797 155.017C398.229 228.649 329.378 275.298 251.301 297.618C68.6322 349.996 19.623 503.137 51.3946 623.269C75.5272 714.707 155.018 800.069 272.482 771.549C300.211 764.804 333.471 757.859 368.714 750.519C517.106 719.568 716.764 677.829 867.934 583.589C863.618 586.292 859.253 588.946 854.838 591.599C704.214 681.351 510.41 721.775 368.863 751.287C333.644 758.727 300.359 765.572 272.68 772.293C220.099 785.065 170.569 775.84 129.472 745.608C92.2687 718.154 64.143 674.804 50.601 623.542C33.8595 560.252 41.2257 491.431 70.79 434.738C105.364 368.472 167.692 320.856 251.053 297.023C426.107 246.976 521.943 81.0878 598.954 -52.213C633.677 -112.229 666.391 -168.898 701.238 -206.247C739.83 -247.614 777.604 -261.774 820.066 -250.763C864.586 -239.206 906.105 -211.752 943.457 -169.146C973.219 -135.095 1000.5 -91.3229 1024.56 -39.0442C1049.78 16.6941 1069.23 74.8633 1082.62 134.557C1086.02 159.428 1087.75 184.5 1087.81 209.602Z" fill="#32509D"></path></g><g opacity="0.05"><path d="M1111.64 208.561C1111.72 236.438 1109.38 264.269 1104.65 291.741C1096.73 337.601 1081.08 381.781 1058.34 422.388C1036.42 460.842 1008.88 495.8 976.616 526.102C943.752 556.856 907.585 583.879 868.776 606.678C711.753 700.373 509.665 742.508 362.116 773.285C325.384 780.949 290.686 788.165 261.816 795.184C207.003 808.502 155.389 798.879 112.581 767.383C73.6909 738.763 44.4987 693.578 30.3862 640.133C21.9013 608.091 19.2135 574.789 22.4495 541.801C25.66 507.42 35.4973 473.986 51.4185 443.344C87.4561 374.251 152.438 324.601 239.32 299.776C421.865 247.695 521.793 74.6151 602.103 -64.365C638.264 -126.936 672.392 -186.035 708.752 -224.971C748.981 -268.098 788.343 -282.83 832.59 -271.372C879.019 -259.344 922.299 -230.7 961.214 -186.307C992.366 -150.794 1020.74 -105.137 1045.76 -50.6506C1072.07 7.47353 1092.36 68.1365 1106.31 130.391C1109.83 156.299 1111.61 182.414 1111.64 208.561ZM21.6558 567.568C21.6565 592.003 24.8161 616.335 31.0559 639.96C56.2301 735.267 139.144 824.15 261.642 794.39C290.537 787.372 325.235 780.13 361.967 772.467C509.491 741.715 711.505 699.579 868.429 605.959C1055.91 494.11 1133.49 338.563 1105.59 130.415C1091.65 68.2027 1071.38 7.5807 1045.1 -50.5018C1005.93 -136.013 937.23 -243.645 832.391 -270.826C788.417 -282.21 749.279 -267.528 709.223 -224.624C672.963 -185.737 638.835 -126.688 602.723 -64.1418C562.369 5.67063 516.659 84.7832 458.87 151.62C392.598 228.5 320.82 277.009 239.419 300.421C84.3559 344.788 21.6558 458.993 21.6558 567.568Z" fill="#32509D"></path></g><path d="M706.694 226.466C706.694 278.547 681.644 319.764 631.965 349.401C584.047 377.995 522.587 390.817 477.72 400.167C466.584 402.498 456.092 404.68 447.387 406.788C408.596 416.212 382.38 388.163 374.443 358.13C363.778 317.756 382.653 268.379 439.376 252.159C493.792 236.61 523.827 184.628 547.935 142.865C570.257 104.326 589.454 70.9444 620.382 79.0541C682.735 95.2238 704.139 198.244 705.032 202.609L705.032 202.782C706.114 210.631 706.669 218.543 706.694 226.466ZM376.378 335.587C376.383 342.77 377.316 349.922 379.156 356.866C386.596 384.691 410.63 410.682 446.122 402.027C454.927 399.894 465.468 397.711 476.604 395.38C567.281 376.458 718.996 344.837 700.146 203.477C699.452 200.178 677.824 98.9686 619.068 83.7414C591.785 76.6485 574.2 106.93 552.102 145.271C527.547 187.803 496.966 240.702 440.665 256.871C394.856 269.916 376.378 303.62 376.378 335.587Z" fill="#32509D"></path></g><defs><clipPath id="clip0_215_1642"><rect width="1120" height="1135" fill="white" transform="translate(0.5 824.15) rotate(-90)"></rect></clipPath></defs></svg>