<svg xmlns="http://www.w3.org/2000/svg" width="1440" height="767" viewBox="0 0 1440 767" fill="none"><g clip-path="url(#clip0_215_649)"><path d="M1827.03 701.207C1566.02 711.824 1445.29 631.063 1340.49 635.326C1235.7 639.589 1146.65 916.052 853.749 978.256C560.845 1040.46 250.636 702.02 117.154 697.214C-16.3283 692.408 162.467 813.613 -40.8379 1118.92M-48.324 1104.63C154.981 799.324 -23.8291 678.09 109.668 682.925C243.15 687.731 553.359 1026.17 846.263 963.966C1139.17 901.762 1228.23 625.327 1333.02 621.065C1437.82 616.802 1558.55 697.563 1819.56 686.946M-55.8296 1090.37C147.475 785.064 -31.3347 663.83 102.162 668.665C235.644 673.471 545.853 1011.91 838.757 949.706C1131.66 887.502 1220.72 611.067 1325.52 606.805C1430.31 602.542 1551.04 683.303 1812.06 672.686M-63.35 1076.09C139.955 770.776 -38.8551 649.542 94.6417 654.377C228.124 659.183 538.333 997.623 831.237 935.418C1124.14 873.214 1213.2 596.779 1318 592.517C1422.79 588.254 1543.52 669.015 1804.54 658.398M-70.8704 1061.8C132.434 756.488 -46.3755 635.254 87.1213 640.088C220.603 644.895 530.812 983.335 823.717 921.13C1116.62 858.926 1205.64 582.493 1310.44 578.23C1415.24 573.967 1535.97 654.728 1796.98 644.111M-78.376 1047.54C124.929 742.228 -53.8812 620.994 79.6157 625.828C213.098 630.635 523.307 969.075 816.211 906.87C1109.12 844.666 1198.17 568.231 1302.97 563.969C1407.77 559.706 1528.5 640.467 1789.51 629.85M-85.8964 1033.25C117.408 727.94 -61.4016 606.706 72.0953 611.54C205.592 616.375 515.786 954.787 808.691 892.582C1101.6 830.378 1190.65 553.943 1295.45 549.681C1400.25 545.418 1520.98 626.179 1781.99 615.562M-93.402 1018.99C109.903 713.68 -68.9072 592.446 64.5897 597.28C198.072 602.087 508.281 940.527 801.185 878.322C1094.09 816.118 1183.15 539.683 1287.94 535.421C1392.74 531.158 1513.47 611.919 1774.48 601.302M-100.922 1004.7C102.348 699.393 -76.4619 578.159 57.0349 582.994C190.517 587.8 500.726 926.24 793.63 864.036C1086.53 801.831 1175.59 525.397 1280.39 521.134C1385.19 516.871 1505.92 597.632 1766.93 587.015M-108.443 990.413C94.862 685.104 -83.9479 563.87 49.5489 568.704C183.031 573.511 493.24 911.951 786.144 849.746C1079.05 787.542 1168.11 511.107 1272.9 506.844C1377.7 502.582 1498.43 583.343 1759.44 572.726M-115.948 976.153C87.322 670.845 -91.4879 549.611 41.9941 554.418C175.476 559.224 485.685 897.664 778.59 835.46C1071.49 773.255 1160.55 496.82 1265.35 492.558C1370.15 488.295 1490.87 569.056 1751.89 558.439M-123.469 961.865C79.836 656.556 -98.974 535.322 34.5229 540.156C168.005 544.963 478.214 883.403 771.118 821.198C1064.02 758.994 1153.05 482.56 1257.84 478.298C1362.64 474.035 1483.37 554.796 1744.38 544.179M-130.974 947.605C72.3303 642.296 -106.48 521.062 27.0173 525.896C160.499 530.703 470.708 869.143 763.613 806.938C1056.52 744.734 1145.58 468.299 1250.37 464.036C1355.17 459.774 1475.9 540.534 1736.91 529.918M-138.495 933.317C64.81 628.008 -114 506.774 19.4969 511.608C152.979 516.415 463.188 854.854 756.092 792.65C1049 730.446 1138.05 454.011 1242.85 449.748C1347.65 445.486 1468.33 526.22 1729.34 515.603M-146.015 919.029C57.2896 613.72 -121.52 492.486 11.9765 497.32C145.459 502.127 455.667 840.566 748.572 778.362C1041.48 716.158 1130.53 439.723 1235.33 435.46C1340.13 431.198 1460.86 511.958 1721.87 501.341M-153.521 904.769C49.7496 599.461 -129.06 478.227 4.42171 483.034C137.904 487.84 448.113 826.28 741.017 764.075C1033.92 701.871 1122.98 425.436 1227.78 421.174C1332.57 416.911 1453.3 497.672 1714.32 487.055M-161.041 890.481C42.2636 585.172 -136.546 463.938 -3.04955 468.772C130.447 473.607 440.641 812.018 733.546 749.814C1026.45 687.61 1115.51 411.175 1220.31 406.912C1325.1 402.65 1445.83 483.41 1706.85 472.793M-168.547 876.221C34.7236 570.913 -144.086 449.679 -10.6043 454.485C122.878 459.292 433.087 797.732 725.991 735.527C1018.9 673.323 1107.95 396.888 1212.75 392.626C1317.55 388.363 1438.28 469.124 1699.29 458.507M-176.067 861.933C27.2376 556.624 -151.572 435.39 -18.0756 440.224C115.407 445.03 425.615 783.47 718.52 721.266C1011.42 659.062 1100.48 382.627 1205.28 378.364C1310.08 374.102 1430.81 454.862 1691.82 444.245M-183.588 847.645C19.7172 542.335 -159.093 421.102 -25.5959 425.936C107.901 430.771 418.095 769.182 710.999 706.978C1003.9 644.774 1092.96 368.339 1197.76 364.076C1302.56 359.813 1423.28 440.574 1684.3 429.957M-191.093 833.385C12.2115 528.075 -166.598 406.842 -33.1016 411.676C100.395 416.511 410.589 754.922 703.494 692.718C996.398 630.514 1085.46 354.079 1190.25 349.816C1295.05 345.553 1415.73 426.287 1676.74 415.671M-198.614 819.097C4.65681 513.789 -174.138 392.583 -40.6563 397.389C92.8258 402.196 403.035 740.636 695.939 678.431C988.844 616.227 1077.9 339.792 1182.7 335.529C1287.5 331.267 1408.22 412.028 1669.24 401.411M-206.134 804.809C-2.8488 499.529 -181.659 378.295 -48.1767 383.101C85.3054 387.908 395.514 726.348 688.419 664.143C981.323 601.939 1070.38 325.504 1175.18 321.241C1279.98 316.979 1400.7 397.739 1661.72 387.123M-213.64 790.549C-10.3349 485.239 -189.145 364.005 -55.648 368.84C77.8489 373.674 388.043 712.086 680.947 649.882C973.852 587.677 1062.91 311.243 1167.71 306.98C1272.5 302.717 1393.23 383.478 1654.25 372.861M-221.16 776.261C-17.8896 470.953 -196.685 349.747 -63.2027 354.553C70.2793 359.36 380.488 697.799 673.393 635.595C966.297 573.391 1055.36 296.956 1160.15 292.693C1264.95 288.431 1385.68 369.191 1646.69 358.575M-228.666 762.001C-25.3609 456.691 -204.171 335.457 -70.674 340.292C62.8229 345.126 373.017 683.538 665.921 621.334C958.826 559.129 1047.88 282.695 1152.68 278.432C1257.48 274.169 1378.21 354.93 1639.22 344.313M-236.186 747.713C-32.8813 442.403 -211.691 321.169 -78.1944 326.004C55.2877 330.81 365.497 669.25 658.401 607.046C951.305 544.841 1040.31 268.38 1145.11 264.117C1249.91 259.855 1370.64 340.615 1631.65 329.998M-243.706 733.425C-40.4017 428.115 -219.212 306.881 -85.7147 311.716C47.7821 316.55 357.976 654.962 650.881 592.758C943.785 530.553 1032.84 254.119 1137.64 249.856C1242.44 245.593 1363.13 326.355 1624.15 315.738M-251.212 719.165C-47.9416 413.857 -226.752 292.623 -93.2695 297.429C40.2125 302.235 350.422 640.675 643.326 578.471C936.23 516.267 1025.29 239.832 1130.09 235.569C1234.88 231.306 1355.61 312.067 1616.63 301.45M-258.732 704.877C-55.462 399.569 -234.257 278.363 -100.775 283.169C32.7069 287.976 342.916 626.415 635.82 564.211C928.725 502.007 1017.78 225.572 1122.58 221.309C1227.38 217.047 1348.11 297.807 1609.12 287.19M-266.238 690.617C-62.9333 385.307 -241.743 264.073 -108.246 268.908C25.2357 273.714 335.445 612.154 628.349 549.95C921.253 487.745 1010.31 211.311 1115.11 207.048C1219.91 202.785 1340.63 283.546 1601.65 272.929M-273.758 676.329C-70.488 371.02 -249.298 249.787 -115.801 254.621C17.6957 259.456 327.89 597.867 620.794 535.663C913.699 473.459 1002.76 197.024 1107.55 192.761C1212.35 188.498 1333.08 269.259 1594.09 258.642M-281.279 662.041C-77.9741 356.731 -256.784 235.497 -123.287 240.332C10.2096 245.166 320.404 583.578 613.308 521.373C906.213 459.169 995.271 182.734 1100.07 178.472C1204.87 174.209 1325.59 254.97 1586.61 244.353M-288.784 647.781C-85.4797 342.471 -264.29 221.237 -130.793 226.072C2.68928 230.878 312.898 569.318 605.803 507.114C898.707 444.909 987.716 168.448 1092.51 164.185C1197.31 159.922 1318.04 240.683 1579.05 230.066M-296.305 633.493C-93.0001 328.183 -271.81 206.949 -138.313 211.784C-4.81634 216.618 305.378 555.03 598.282 492.825C891.187 430.621 980.245 154.186 1085.04 149.924C1189.84 145.661 1310.57 226.422 1571.58 215.805M-303.825 619.204C-100.54 313.924 -279.35 192.691 -145.868 197.497C-12.3859 202.303 297.823 540.743 590.728 478.539C883.632 416.334 972.69 139.9 1077.49 135.637C1182.28 131.374 1303.01 212.135 1564.03 201.518M-311.331 604.944C-108.026 299.635 -286.836 178.401 -153.339 183.235C-19.8424 188.07 290.352 526.482 583.256 464.277C876.161 402.073 965.219 125.638 1070.02 121.376C1174.81 117.113 1295.54 197.874 1556.56 187.257" stroke="#DDE4F4" stroke-width="2" stroke-miterlimit="10"></path></g><defs><clipPath id="clip0_215_649"><rect width="1440" height="767" fill="white"></rect></clipPath></defs></svg>