<svg xmlns="http://www.w3.org/2000/svg" width="164" height="30" viewBox="0 0 164 30" fill="none"><rect width="164" height="30" rx="5" fill="#B1F2D0"></rect><path d="M22.5558 10.6332C22.5343 10.1596 22.5343 9.70762 22.5343 9.25561C22.5343 8.88969 22.2544 8.60987 21.8885 8.60987C19.1979 8.60987 17.1531 7.83498 15.4527 6.17758C15.1944 5.94081 14.8069 5.94081 14.5486 6.17758C12.8482 7.83498 10.8033 8.60987 8.11274 8.60987C7.74682 8.60987 7.467 8.88969 7.467 9.25561C7.467 9.70762 7.467 10.1596 7.44548 10.6332C7.35938 15.1534 7.23023 21.3525 14.7854 23.957L15.0006 24L15.2159 23.957C22.7495 21.3525 22.6419 15.1749 22.5558 10.6332ZM14.484 16.8969C14.3549 17.0045 14.2042 17.0691 14.032 17.0691H14.0105C13.8383 17.0691 13.6661 16.983 13.5585 16.8538L11.5567 14.6368L12.5253 13.7758L14.0966 15.5193L17.5836 12.2045L18.4661 13.1516L14.484 16.8969Z" fill="#0E7946"></path><path d="M32.516 19L28.892 10.6H30.992L34.16 18.04H32.924L36.14 10.6H38.072L34.436 19H32.516ZM40.5613 13.984H44.6053V15.496H40.5613V13.984ZM40.7053 17.44H45.2773V19H38.7733V10.6H45.1213V12.16H40.7053V17.44ZM46.8241 19V10.6H50.4601C51.2121 10.6 51.8601 10.724 52.4041 10.972C52.9481 11.212 53.3681 11.56 53.6641 12.016C53.9601 12.472 54.1081 13.016 54.1081 13.648C54.1081 14.272 53.9601 14.812 53.6641 15.268C53.3681 15.716 52.9481 16.06 52.4041 16.3C51.8601 16.54 51.2121 16.66 50.4601 16.66H47.9041L48.7681 15.808V19H46.8241ZM52.1641 19L50.0641 15.952H52.1401L54.2641 19H52.1641ZM48.7681 16.024L47.9041 15.112H50.3521C50.9521 15.112 51.4001 14.984 51.6961 14.728C51.9921 14.464 52.1401 14.104 52.1401 13.648C52.1401 13.184 51.9921 12.824 51.6961 12.568C51.4001 12.312 50.9521 12.184 50.3521 12.184H47.9041L48.7681 11.26V16.024ZM55.6483 19V10.6H57.5923V19H55.6483ZM61.3858 14.38H65.4178V15.94H61.3858V14.38ZM61.5298 19H59.5858V10.6H65.9338V12.16H61.5298V19ZM67.2499 19V10.6H69.1939V19H67.2499ZM72.9754 13.984H77.0194V15.496H72.9754V13.984ZM73.1194 17.44H77.6914V19H71.1874V10.6H77.5354V12.16H73.1194V17.44ZM79.2382 19V10.6H83.0542C83.9662 10.6 84.7702 10.776 85.4662 11.128C86.1622 11.472 86.7062 11.956 87.0982 12.58C87.4902 13.204 87.6862 13.944 87.6862 14.8C87.6862 15.648 87.4902 16.388 87.0982 17.02C86.7062 17.644 86.1622 18.132 85.4662 18.484C84.7702 18.828 83.9662 19 83.0542 19H79.2382ZM81.1822 17.404H82.9582C83.5182 17.404 84.0022 17.3 84.4102 17.092C84.8262 16.876 85.1462 16.572 85.3702 16.18C85.6022 15.788 85.7182 15.328 85.7182 14.8C85.7182 14.264 85.6022 13.804 85.3702 13.42C85.1462 13.028 84.8262 12.728 84.4102 12.52C84.0022 12.304 83.5182 12.196 82.9582 12.196H81.1822V17.404ZM96.5707 19.144C95.9227 19.144 95.3187 19.04 94.7587 18.832C94.2067 18.616 93.7267 18.312 93.3187 17.92C92.9107 17.528 92.5907 17.068 92.3587 16.54C92.1347 16.012 92.0227 15.432 92.0227 14.8C92.0227 14.168 92.1347 13.588 92.3587 13.06C92.5907 12.532 92.9107 12.072 93.3187 11.68C93.7347 11.288 94.2187 10.988 94.7707 10.78C95.3227 10.564 95.9267 10.456 96.5827 10.456C97.3107 10.456 97.9667 10.584 98.5507 10.84C99.1427 11.088 99.6387 11.456 100.039 11.944L98.7907 13.096C98.5027 12.768 98.1827 12.524 97.8307 12.364C97.4787 12.196 97.0947 12.112 96.6787 12.112C96.2867 12.112 95.9267 12.176 95.5987 12.304C95.2707 12.432 94.9867 12.616 94.7467 12.856C94.5067 13.096 94.3187 13.38 94.1827 13.708C94.0547 14.036 93.9907 14.4 93.9907 14.8C93.9907 15.2 94.0547 15.564 94.1827 15.892C94.3187 16.22 94.5067 16.504 94.7467 16.744C94.9867 16.984 95.2707 17.168 95.5987 17.296C95.9267 17.424 96.2867 17.488 96.6787 17.488C97.0947 17.488 97.4787 17.408 97.8307 17.248C98.1827 17.08 98.5027 16.828 98.7907 16.492L100.039 17.644C99.6387 18.132 99.1427 18.504 98.5507 18.76C97.9667 19.016 97.3067 19.144 96.5707 19.144ZM105.256 19.144C104.592 19.144 103.976 19.036 103.408 18.82C102.848 18.604 102.36 18.3 101.944 17.908C101.536 17.516 101.216 17.056 100.984 16.528C100.76 16 100.648 15.424 100.648 14.8C100.648 14.176 100.76 13.6 100.984 13.072C101.216 12.544 101.54 12.084 101.956 11.692C102.372 11.3 102.86 10.996 103.42 10.78C103.98 10.564 104.588 10.456 105.244 10.456C105.908 10.456 106.516 10.564 107.068 10.78C107.628 10.996 108.112 11.3 108.52 11.692C108.936 12.084 109.26 12.544 109.492 13.072C109.724 13.592 109.84 14.168 109.84 14.8C109.84 15.424 109.724 16.004 109.492 16.54C109.26 17.068 108.936 17.528 108.52 17.92C108.112 18.304 107.628 18.604 107.068 18.82C106.516 19.036 105.912 19.144 105.256 19.144ZM105.244 17.488C105.62 17.488 105.964 17.424 106.276 17.296C106.596 17.168 106.876 16.984 107.116 16.744C107.356 16.504 107.54 16.22 107.668 15.892C107.804 15.564 107.872 15.2 107.872 14.8C107.872 14.4 107.804 14.036 107.668 13.708C107.54 13.38 107.356 13.096 107.116 12.856C106.884 12.616 106.608 12.432 106.288 12.304C105.968 12.176 105.62 12.112 105.244 12.112C104.868 12.112 104.52 12.176 104.2 12.304C103.888 12.432 103.612 12.616 103.372 12.856C103.132 13.096 102.944 13.38 102.808 13.708C102.68 14.036 102.616 14.4 102.616 14.8C102.616 15.192 102.68 15.556 102.808 15.892C102.944 16.22 103.128 16.504 103.36 16.744C103.6 16.984 103.88 17.168 104.2 17.296C104.52 17.424 104.868 17.488 105.244 17.488ZM111.301 19V10.6H112.909L116.485 16.528H115.633L119.149 10.6H120.745L120.769 19H118.945L118.933 13.396H119.269L116.461 18.112H115.585L112.717 13.396H113.125V19H111.301ZM122.762 19V10.6H126.398C127.15 10.6 127.798 10.724 128.342 10.972C128.886 11.212 129.306 11.56 129.602 12.016C129.898 12.472 130.046 13.016 130.046 13.648C130.046 14.272 129.898 14.812 129.602 15.268C129.306 15.724 128.886 16.076 128.342 16.324C127.798 16.564 127.15 16.684 126.398 16.684H123.842L124.706 15.808V19H122.762ZM124.706 16.024L123.842 15.1H126.29C126.89 15.1 127.338 14.972 127.634 14.716C127.93 14.46 128.078 14.104 128.078 13.648C128.078 13.184 127.93 12.824 127.634 12.568C127.338 12.312 126.89 12.184 126.29 12.184H123.842L124.706 11.26V16.024ZM129.908 19L133.652 10.6H135.572L139.328 19H137.288L134.216 11.584H134.984L131.9 19H129.908ZM131.78 17.2L132.296 15.724H136.616L137.144 17.2H131.78ZM140.199 19V10.6H141.807L146.763 16.648H145.983V10.6H147.903V19H146.307L141.339 12.952H142.119V19H140.199ZM151.979 19V15.568L152.423 16.744L148.727 10.6H150.791L153.623 15.316H152.435L155.279 10.6H157.187L153.491 16.744L153.923 15.568V19H151.979Z" fill="#1C1C1C"></path></svg>